<svg xmlns="http://www.w3.org/2000/svg" viewBox="0 0 200 190" role="img" aria-label="Cóndor Dental Lab">
  <g fill="#0B0B0C">
    <!-- ala izquierda -->
    <path d="M92 96C80 84 58 72 14 50l14 10-18-2 17 9-19 1 20 9-16 3 22 7-13 5 26 3c13 3 26 8 40 14z"/>
    <!-- ala derecha -->
    <path d="M104 90c9-18 22-38 48-62l-4 14 12-9-7 17 11-5-9 15c-9 13-22 24-38 32z"/>
    <!-- cabeza -->
    <path d="M102 92c5-11 13-18 24-18 7 0 12 2 16 7l-7 2c-4 0-8 2-12 5-7 5-13 7-21 8z"/>
    <!-- cola / ala baja -->
    <path d="M74 112c-10 8-20 18-28 32l10-4-6 11 12-8-2 11 14-17z"/>
    <!-- diente -->
    <path d="M70 104c0-12 12-16 22-12 4 2 12 2 16 0 10-4 22 0 22 12 0 18-6 28-8 45-2 15-6 23-10 23-6 0-6-18-12-26-6 8-6 26-12 26-4 0-8-8-10-23-2-17-8-27-8-45z"/>
  </g>
  <path d="M112 89c12-4 25 3 24 18-1 18-7 28-9 46-2 14-6 22-12 22" fill="none" stroke="#B8975A" stroke-width="3" stroke-linecap="round"/>
</svg>
